<?xml version="1.0" encoding="UTF-8"?>
<svg id="Layer_1" data-name="Layer 1" xmlns="http://www.w3.org/2000/svg" version="1.1" viewBox="0 0 273.5 59.2">
  <defs>
    <style>
      .cls-1 {
        fill: #13ce74;
        fill-rule: evenodd;
      }

      .cls-1, .cls-2 {
        stroke-width: 0px;
      }

      .cls-2 {
        fill: #192238;
      }
    </style>
  </defs>
  <g id="_08-Symbols" data-name=" 08-Symbols">
    <g id="logo-ember-default">
      <path id="EMB" class="cls-2" d="M40.8,56.8v-11H15.3v-11.5h21.3v-10.1H15.3v-10.5h24.8V2.7H2.8v54h38ZM65.5,56.8V24.6l11.6,23.4h6.9l11.6-23.4v32.2h12.5V2.8h-13.5l-14.1,28.2-14-28.2h-13.5v54h12.5ZM146.7,56.8c3.3,0,6.4-.5,9.2-1.5s5-2.6,6.7-4.6c1.6-2.1,2.5-4.6,2.5-7.7s-.9-6.6-2.7-9c-1.8-2.3-4.3-4-7.3-4.9,2.5-1.2,4.5-2.9,5.8-5.2s2-4.7,2-7.3-.5-4.5-1.5-6.6c-1-2.1-2.4-3.9-4.3-5.2s-4-2-6.6-2h-30.1v54h26.3ZM145.1,24.6h-12.3v-11.2h12.7c.9,0,1.7.2,2.4.6.7.4,1.3,1.1,1.7,1.9.4.8.6,1.8.6,3s-.3,2.3-.8,3.2-1.2,1.5-1.9,1.9-1.5.6-2.4.6h0ZM146.7,46.2h-13.9v-11.8h14.4c1,0,1.9.3,2.6.8.7.5,1.3,1.2,1.8,2.1.5.9.7,1.9.7,3.1s-.3,2.1-.8,3-1.2,1.5-2,2.1c-.8.4-1.8.7-2.8.7h0Z"/>
      <path id="Combined-Shape" class="cls-1" d="M211.9,46v10.8h-37.7v-10.8h37.7ZM211.9,24.4v10.8h-37.7v-10.8s37.7,0,37.7,0ZM211.9,2.9v10.8h-37.7V2.9h37.7Z"/>
      <path id="R" class="cls-2" d="M237.6,56.8v-17.5h8.4l10.4,17.4h13.8l-11.9-20.1c1.8-1,3.4-2.3,4.7-3.9,1.3-1.6,2.3-3.4,3-5.4s1.1-4.1,1.1-6.4-.4-4.4-1.3-6.6c-.9-2.2-2.1-4.1-3.7-5.9s-3.4-3.1-5.6-4.2c-2.2-1-4.5-1.6-7-1.6h-24.4v54h12.5v.2ZM249,28.5h-11.4v-14.8h11c1,0,1.9.3,2.7.9.9.6,1.6,1.5,2.2,2.6s.9,2.4.9,3.8-.3,2.8-.8,3.9-1.2,2-1.9,2.6c-.8.6-1.7,1-2.7,1h0Z"/>
    </g>
  </g>
</svg>