<?xml version="1.0" encoding="UTF-8"?>
<svg version="1.1" xmlns="http://www.w3.org/2000/svg" width="250" height="202">
<path d="M0 0 C82.5 0 165 0 250 0 C250 66.66 250 133.32 250 202 C167.5 202 85 202 0 202 C0 135.34 0 68.68 0 0 Z " fill="#FEFEFE" transform="translate(0,0)"/>
<path d="M0 0 C4.29 0 8.58 0 13 0 C13.33 3.96 13.66 7.92 14 12 C18.29 12.33 22.58 12.66 27 13 C27 17.95 27 22.9 27 28 C24.091875 28.0309375 24.091875 28.0309375 21.125 28.0625 C19.48917969 28.07990234 19.48917969 28.07990234 17.8203125 28.09765625 C15 28 15 28 13 27 C8.71 27 4.42 27 0 27 C0 18.09 0 9.18 0 0 Z " fill="#ABABAA" transform="translate(53,82)"/>
<path d="M0 0 C2.64 0 5.28 0 8 0 C8 3.3 8 6.6 8 10 C10.64 10 13.28 10 16 10 C16 6.7 16 3.4 16 0 C18.31 0 20.62 0 23 0 C23 8.91 23 17.82 23 27 C20.69 27 18.38 27 16 27 C16 23.7 16 20.4 16 17 C13.36 17 10.72 17 8 17 C8 20.63 8 24.26 8 28 C5.36 28 2.72 28 0 28 C0 18.76 0 9.52 0 0 Z " fill="#1882C4" transform="translate(109,82)"/>
<path d="M0 0 C4.64441245 1.16110311 5.87733173 2.58752469 9.125 6 C12.2335286 9.44052785 12.2335286 9.44052785 16 12 C16 8.04 16 4.08 16 0 C18.31 0 20.62 0 23 0 C23 8.91 23 17.82 23 27 C18.35558755 25.83889689 17.12266827 24.41247531 13.875 21 C10.7664714 17.55947215 10.7664714 17.55947215 7 15 C7 18.96 7 22.92 7 27 C4.69 27 2.38 27 0 27 C0 18.09 0 9.18 0 0 Z " fill="#0C7DC1" transform="translate(84,82)"/>
<path d="M0 0 C3 1.125 3 1.125 5 3 C5.8125 6.1875 5.8125 6.1875 6 9 C3.69 9 1.38 9 -1 9 C-1.33 8.34 -1.66 7.68 -2 7 C-3.98 7 -5.96 7 -8 7 C-7.67 7.99 -7.34 8.98 -7 10 C-6.32453125 10.09796875 -5.6490625 10.1959375 -4.953125 10.296875 C2.25868726 11.50579151 2.25868726 11.50579151 5.625 13.75 C7.50183305 16.82118136 7.65037349 18.45907767 7 22 C2.15101763 27.74221596 2.15101763 27.74221596 -1.98828125 28.23828125 C-6.03111229 28.36738006 -8.40557805 28.33436235 -12 26.3125 C-14.18168017 23.78993231 -14.72608098 22.2870282 -15 19 C-12.66705225 18.95758277 -10.33297433 18.95907063 -8 19 C-7.67 19.33 -7.34 19.66 -7 20 C-5.00041636 20.04080783 -2.99954746 20.04254356 -1 20 C-1 19.34 -1 18.68 -1 18 C-1.67546875 17.91363281 -2.3509375 17.82726562 -3.046875 17.73828125 C-7.3414916 17.06181707 -10.26530565 16.59800703 -13.6875 13.8125 C-15.46570323 10.00206452 -15.23488599 7.99521939 -14 4 C-10.12041987 -0.72823828 -5.71023102 -0.83791433 0 0 Z " fill="#1381C3" transform="translate(170,82)"/>
<path d="M0 0 C1.32 0 2.64 0 4 0 C5.84255516 3.93324939 7.67244719 7.87226022 9.5 11.8125 C10.02464844 12.93205078 10.54929688 14.05160156 11.08984375 15.20507812 C11.83427734 16.81479492 11.83427734 16.81479492 12.59375 18.45703125 C13.05458984 19.44678955 13.51542969 20.43654785 13.99023438 21.45629883 C15 24 15 24 15 27 C12.69 27 10.38 27 8 27 C8 26.01 8 25.02 8 24 C4.04 24 0.08 24 -4 24 C-4.33 24.99 -4.66 25.98 -5 27 C-7.31 27 -9.62 27 -12 27 C-4.61702128 8.65957447 -4.61702128 8.65957447 0 0 Z " fill="#1180C3" transform="translate(188,82)"/>
<path d="M0 0 C6.6 0 13.2 0 20 0 C20 2.31 20 4.62 20 7 C18.02 7 16.04 7 14 7 C14 13.93 14 20.86 14 28 C11.36 28 8.72 28 6 28 C6 21.07 6 14.14 6 7 C4.02 7 2.04 7 0 7 C0 4.69 0 2.38 0 0 Z " fill="#2287C6" transform="translate(134,82)"/>
<path d="M0 0 C4.29 0 8.58 0 13 0 C13 4.29 13 8.58 13 13 C8.71 13 4.42 13 0 13 C0 8.71 0 4.42 0 0 Z " fill="#FFCE22" transform="translate(67,82)"/>
<path d="M0 0 C4.29 0 8.58 0 13 0 C13 4.29 13 8.58 13 13 C8.71 13 4.42 13 0 13 C0 8.71 0 4.42 0 0 Z " fill="#328EC9" transform="translate(53,82)"/>
<path d="M0 0 C3.96 0 7.92 0 12 0 C12 3.96 12 7.92 12 12 C8.04 12 4.08 12 0 12 C0 8.04 0 4.08 0 0 Z " fill="#BC091F" transform="translate(53,97)"/>
<path d="M0 0 C1.65 0.33 3.3 0.66 5 1 C5.66 3.31 6.32 5.62 7 8 C3.7 8 0.4 8 -3 8 C-1.125 2.25 -1.125 2.25 0 0 Z " fill="#EECCCB" transform="translate(57,99)"/>
<path d="M0 0 C2.35694954 0.09031574 4.71153582 0.24688128 7.0625 0.4375 C8.35285156 0.53933594 9.64320312 0.64117187 10.97265625 0.74609375 C12.47119141 0.87177734 12.47119141 0.87177734 14 1 C14 1.66 14 2.32 14 3 C9.38 3 4.76 3 0 3 C0 6.96 0 10.92 0 15 C-0.33 15 -0.66 15 -1 15 C-1 11.04 -1 7.08 -1 3 C-4.96 3 -8.92 3 -13 3 C-13 2.67 -13 2.34 -13 2 C-12.14535156 1.93941406 -11.29070313 1.87882812 -10.41015625 1.81640625 C-8.75306641 1.69072266 -8.75306641 1.69072266 -7.0625 1.5625 C-5.96035156 1.48128906 -4.85820313 1.40007812 -3.72265625 1.31640625 C-1.08890097 1.29581916 -1.08890097 1.29581916 0 0 Z " fill="#E8C8C8" transform="translate(66,94)"/>
<path d="M0 0 C1.65 0 3.3 0 5 0 C5 3.63 5 7.26 5 11 C3.68 11 2.36 11 1 11 C-0.81772642 6.79650765 -1.48844712 4.46534136 0 0 Z " fill="#FFC906" transform="translate(75,83)"/>
<path d="M0 0 C2.875 -0.125 2.875 -0.125 6 0 C8 2 8 2 8.3125 4.5 C8.1578125 5.7375 8.1578125 5.7375 8 7 C7.01 7.66 6.02 8.32 5 9 C4.67 8.67 4.34 8.34 4 8 C1.94603274 8.40929986 1.94603274 8.40929986 0 9 C0 6 0 6 1 4 C2.65 4 4.3 4 6 4 C5.67 3.34 5.34 2.68 5 2 C3.35 2 1.7 2 0 2 C-0.33 2.99 -0.66 3.98 -1 5 C-0.67 3.35 -0.34 1.7 0 0 Z " fill="#C3DBEE" transform="translate(56,84)"/>
<path d="M0 0 C0.66 0.33 1.32 0.66 2 1 C2 1.66 2 2.32 2 3 C3.32 3.33 4.64 3.66 6 4 C5 6 4 8 3 10 C1.35 9.67 -0.3 9.34 -2 9 C-2 7.68 -2 6.36 -2 5 C-2.66 5 -3.32 5 -4 5 C-4 4.34 -4 3.68 -4 3 C-2.68 3 -1.36 3 0 3 C0 2.01 0 1.02 0 0 Z " fill="#E5E5E5" transform="translate(73,98)"/>
<path d="M0 0 C3.96 0 7.92 0 12 0 C12 1.65 12 3.3 12 5 C9.5625 4.625 9.5625 4.625 7 4 C6.67 3.34 6.34 2.68 6 2 C5.67 2.66 5.34 3.32 5 4 C3.35 4 1.7 4 0 4 C0 2.68 0 1.36 0 0 Z " fill="#9E9E9D" transform="translate(68,97)"/>
<path d="M0 0 C0 1.32 0 2.64 0 4 C-1.99954746 4.04254356 -4.00041636 4.04080783 -6 4 C-6.33 3.67 -6.66 3.34 -7 3 C-9.32817964 2.63239269 -11.6618385 2.29758419 -14 2 C-14 1.67 -14 1.34 -14 1 C-9.27685687 0.22887459 -4.78478822 -0.09764874 0 0 Z " fill="#F0F7FB" transform="translate(169,99)"/>
<path d="M0 0 C0.66 0 1.32 0 2 0 C3.50943396 6.98113208 3.50943396 6.98113208 2 10 C0.68 9.34 -0.64 8.68 -2 8 C-1.67 7.01 -1.34 6.02 -1 5 C-1.66 4.67 -2.32 4.34 -3 4 C-1.625 2 -1.625 2 0 0 Z " fill="#FFF3D2" transform="translate(73,84)"/>
<path d="M0 0 C3.3 0 6.6 0 10 0 C10 1.32 10 2.64 10 4 C9.34 4 8.68 4 8 4 C7.67 3.34 7.34 2.68 7 2 C4.97536745 1.34786708 4.97536745 1.34786708 3 1 C2.67 2.32 2.34 3.64 2 5 C1.34 5 0.68 5 0 5 C0 3.35 0 1.7 0 0 Z " fill="#BF1C2D" transform="translate(54,98)"/>
<path d="M0 0 C1.32 0 2.64 0 4 0 C4 3.96 4 7.92 4 12 C2.68 11.34 1.36 10.68 0 10 C0.66 9.34 1.32 8.68 2 8 C2.38286803 4.26703674 2.14915785 3.22373677 0 0 Z " fill="#027AC0" transform="translate(61,83)"/>
<path d="M0 0 C0.598125 0.20625 1.19625 0.4125 1.8125 0.625 C1.8125 1.285 1.8125 1.945 1.8125 2.625 C0.1625 2.625 -1.4875 2.625 -3.1875 2.625 C-3.5175 3.615 -3.8475 4.605 -4.1875 5.625 C-4.8475 5.295 -5.5075 4.965 -6.1875 4.625 C-5.03076352 1.15479057 -3.91311293 -0.67081936 0 0 Z " fill="#5FA4D4" transform="translate(60.1875,85.375)"/>
<path d="M0 0 C2.475 0.495 2.475 0.495 5 1 C5 2.32 5 3.64 5 5 C4.01 5.33 3.02 5.66 2 6 C2 4.68 2 3.36 2 2 C1.34 2 0.68 2 0 2 C0 1.34 0 0.68 0 0 Z " fill="#D7D7D7" transform="translate(69,101)"/>
<path d="M0 0 C2.2477975 2.05233685 3.0022242 3.00667261 4 6 C2.02 6 0.04 6 -2 6 C-1.34 4.02 -0.68 2.04 0 0 Z " fill="#E9F2F9" transform="translate(189,94)"/>
<path d="M0 0 C1.65 0 3.3 0 5 0 C4.34 1.65 3.68 3.3 3 5 C1.35 4.67 -0.3 4.34 -2 4 C-1.34 2.68 -0.68 1.36 0 0 Z " fill="#E5F0F7" transform="translate(57,88)"/>
<path d="M0 0 C0.33 0 0.66 0 1 0 C1 1.65 1 3.3 1 5 C2.65 5 4.3 5 6 5 C6 5.33 6 5.66 6 6 C3.36 6 0.72 6 -2 6 C-1.34 4.02 -0.68 2.04 0 0 Z " fill="#E1A0A0" transform="translate(56,101)"/>
<path d="M0 0 C0 0.33 0 0.66 0 1 C-3.96 1 -7.92 1 -12 1 C-7.03483464 -2.31011024 -5.70515444 -1.79606714 0 0 Z " fill="#FFCE27" transform="translate(80,94)"/>
</svg>
